<svg xmlns="http://www.w3.org/2000/svg" xmlns:xlink="http://www.w3.org/1999/xlink" width="337" height="120" viewBox="0 0 337 120">
  <defs>
    <clipPath id="clip-path">
      <rect id="Rectangle_2348" data-name="Rectangle 2348" width="337" height="120" transform="translate(140)" fill="none" stroke="#707070" stroke-width="1"/>
    </clipPath>
    <linearGradient id="linear-gradient" x1="0.5" x2="0.5" y2="1" gradientUnits="objectBoundingBox">
      <stop offset="0" stop-color="#f7b917"/>
      <stop offset="0.017" stop-color="#f6b617"/>
      <stop offset="0.316" stop-color="#f28e1c"/>
      <stop offset="0.59" stop-color="#f0711f"/>
      <stop offset="0.827" stop-color="#ee6022"/>
      <stop offset="1" stop-color="#ee5a23"/>
    </linearGradient>
    <linearGradient id="linear-gradient-6" x1="0.5" y1="1" x2="0.5" y2="0" xlink:href="#linear-gradient"/>
  </defs>
  <g id="Mask_Group_2" data-name="Mask Group 2" transform="translate(-140)" clip-path="url(#clip-path)">
    <g id="Group_246" data-name="Group 246" transform="translate(-77.645 -94.447)">
      <path id="Path_81" data-name="Path 81" d="M310.055,166.89h4.377v-20.9a15.821,15.821,0,0,1,.868-4.9h0a11.808,11.808,0,0,1,2.223-3.888h0a10.148,10.148,0,0,1,3.471-2.571h0a11.164,11.164,0,0,1,4.685-.936h0a10.353,10.353,0,0,1,4.412.832h0a7.079,7.079,0,0,1,2.808,2.292h0a9.024,9.024,0,0,1,1.461,3.438h0a20.721,20.721,0,0,1,.416,4.268h0v22.36h4.377V143.835a24.432,24.432,0,0,0-.628-5.761h0a10.235,10.235,0,0,0-2.151-4.339h0a9.967,9.967,0,0,0-4.062-2.743h0a17.663,17.663,0,0,0-6.283-.973h0A13.072,13.072,0,0,0,319.014,132h0a10.506,10.506,0,0,0-4.444,5.243h-.138v-6.179h-4.377Z" transform="translate(-3.693 -0.542)" fill-rule="evenodd" fill="url(#linear-gradient)"/>
      <path id="Path_82" data-name="Path 82" d="M355.938,131.652a14.425,14.425,0,0,0-5.03,4.3h0a18.654,18.654,0,0,0-2.886,6.074h0a26.136,26.136,0,0,0-.935,6.944h0a27.559,27.559,0,0,0,.935,7.255h0a17.827,17.827,0,0,0,2.886,6.042h0a13.464,13.464,0,0,0,5.03,4.1h0a16.714,16.714,0,0,0,7.328,1.494q6.8,0,10.517-3.333h0a17.471,17.471,0,0,0,5.106-9.444h-4.376a13.164,13.164,0,0,1-3.749,6.667h0a10.639,10.639,0,0,1-7.5,2.5h0a10.276,10.276,0,0,1-5.347-1.322h0a12.1,12.1,0,0,1-3.678-3.332h0a13.411,13.411,0,0,1-2.119-4.546h0a19.341,19.341,0,0,1-.659-4.9h27.566a28.306,28.306,0,0,0-.7-7.4h0a18.815,18.815,0,0,0-2.745-6.459h0a14.646,14.646,0,0,0-4.963-4.546h0a14.665,14.665,0,0,0-7.36-1.737h0a15.5,15.5,0,0,0-7.328,1.633Zm-3.332,10.067a14.238,14.238,0,0,1,2.329-4.1h0a11.178,11.178,0,0,1,3.539-2.847h0a10.315,10.315,0,0,1,4.792-1.075h0a10.154,10.154,0,0,1,4.722,1.075h0a11.187,11.187,0,0,1,3.539,2.847h0a13.076,13.076,0,0,1,2.256,4.063h0a15.685,15.685,0,0,1,.869,4.789H351.463a20.131,20.131,0,0,1,1.142-4.755Z" transform="translate(-5.173 -0.542)" fill-rule="evenodd" fill="url(#linear-gradient)"/>
      <path id="Path_83" data-name="Path 83" d="M414.453,131.1H408.97l-10,13.608L388.764,131.1h-5.486l12.845,17.218-13.886,18.61h5.415l11.038-15.069,11.251,15.069H415.5L401.54,148.255Z" transform="translate(-6.578 -0.586)" fill-rule="evenodd" fill="url(#linear-gradient)"/>
      <path id="Path_84" data-name="Path 84" d="M450.313,166.934V131.105h-4.376v18.817a22.692,22.692,0,0,1-.623,5.312h0a14.549,14.549,0,0,1-1.944,4.617h0a10.328,10.328,0,0,1-3.332,3.23h0a9.264,9.264,0,0,1-4.861,1.215h0q-5.212,0-7.327-2.5h0q-2.12-2.5-2.257-7.361h0V131.105H421.22v23.261a21.323,21.323,0,0,0,.694,5.693h0A10.847,10.847,0,0,0,424.1,164.3h0a9.639,9.639,0,0,0,3.888,2.672h0a15.935,15.935,0,0,0,5.8.939h0a14.368,14.368,0,0,0,7.328-1.91h0a12.428,12.428,0,0,0,5.034-5.52h.139v6.458Z" transform="translate(-8.136 -0.586)" fill-rule="evenodd" fill="url(#linear-gradient)"/>
      <path id="Path_85" data-name="Path 85" d="M472.756,167.863h.078a23.912,23.912,0,0,0,4.987-.556h0a14.309,14.309,0,0,0,4.619-1.841h0a10.8,10.8,0,0,0,3.369-3.331h0a8.982,8.982,0,0,0,1.317-4.965,8.8,8.8,0,0,0-.9-4.1h0a9.364,9.364,0,0,0-2.325-2.916h0a12.056,12.056,0,0,0-3.265-1.91h0a16.81,16.81,0,0,0-3.713-1.005h0l-5.836-1.322c-.741-.182-1.552-.425-2.428-.727h0a11.851,11.851,0,0,1-2.433-1.145h0a6.545,6.545,0,0,1-1.841-1.7h0a4.1,4.1,0,0,1-.726-2.465h0a5.27,5.27,0,0,1,.762-2.917h0a5.942,5.942,0,0,1,2.015-1.91h0a9.091,9.091,0,0,1,2.742-1.04h0a14.24,14.24,0,0,1,2.952-.313h0a13.437,13.437,0,0,1,3.542.451h0a8.572,8.572,0,0,1,2.952,1.423h0a7.14,7.14,0,0,1,2.048,2.466h0a8.244,8.244,0,0,1,.832,3.506h4.373a12.951,12.951,0,0,0-1.18-5.069h0a10.541,10.541,0,0,0-2.812-3.612h0a11.563,11.563,0,0,0-4.1-2.152h0a17.572,17.572,0,0,0-5.031-.694h0a21.011,21.011,0,0,0-4.761.556h0a14.714,14.714,0,0,0-4.337,1.736h0a9.487,9.487,0,0,0-3.161,3.125h0a8.621,8.621,0,0,0-1.214,4.651h0a8.733,8.733,0,0,0,.761,3.854h0a7.594,7.594,0,0,0,2.119,2.639h0a12.693,12.693,0,0,0,3.161,1.806h0a31.579,31.579,0,0,0,3.955,1.283h0l5.627,1.252q1.457.347,2.88.833h0a11.094,11.094,0,0,1,2.534,1.214h0a5.754,5.754,0,0,1,1.774,1.806h0a5.043,5.043,0,0,1,.658,2.673h0a5.227,5.227,0,0,1-.936,3.159h0a7.574,7.574,0,0,1-2.4,2.118h0a10.536,10.536,0,0,1-3.16,1.179h0a16.333,16.333,0,0,1-3.3.349h0A11.722,11.722,0,0,1,465.635,162h0a8.63,8.63,0,0,1-3.227-6.7h-4.376q.554,6.6,4.479,9.582h0Q466.431,167.859,472.756,167.863Z" transform="translate(-9.607 -0.542)" fill-rule="evenodd" fill="url(#linear-gradient)"/>
      <path id="Path_86" data-name="Path 86" d="M311.869,166.89h4.376v-20.9a15.794,15.794,0,0,1,.87-4.9h0a11.756,11.756,0,0,1,2.222-3.888h0a10.147,10.147,0,0,1,3.471-2.571h0a11.159,11.159,0,0,1,4.686-.936h0a10.334,10.334,0,0,1,4.409.832h0a7.072,7.072,0,0,1,2.81,2.292h0a9.023,9.023,0,0,1,1.46,3.438h0a20.719,20.719,0,0,1,.416,4.268h0v22.36h4.376V143.835a24.489,24.489,0,0,0-.625-5.761h0a10.267,10.267,0,0,0-2.151-4.339h0a9.976,9.976,0,0,0-4.063-2.743h0a17.666,17.666,0,0,0-6.283-.973h0A13.077,13.077,0,0,0,320.827,132h0a10.505,10.505,0,0,0-4.444,5.243h-.138v-6.179h-4.376Z" transform="translate(-3.766 -0.542)" fill-rule="evenodd" fill="url(#linear-gradient-6)"/>
      <path id="Path_87" data-name="Path 87" d="M357.751,131.652a14.445,14.445,0,0,0-5.031,4.3h0a18.591,18.591,0,0,0-2.884,6.074h0a26.1,26.1,0,0,0-.937,6.944,27.518,27.518,0,0,0,.937,7.255h0a17.77,17.77,0,0,0,2.884,6.042h0a13.482,13.482,0,0,0,5.031,4.1h0a16.712,16.712,0,0,0,7.329,1.494q6.8,0,10.517-3.333h0a17.476,17.476,0,0,0,5.105-9.444h-4.376a13.171,13.171,0,0,1-3.749,6.667h0a10.639,10.639,0,0,1-7.5,2.5h0a10.278,10.278,0,0,1-5.348-1.322h0a12.089,12.089,0,0,1-3.679-3.332h0a13.39,13.39,0,0,1-2.117-4.546h0a19.3,19.3,0,0,1-.66-4.9h27.566a28.3,28.3,0,0,0-.7-7.4h0A18.851,18.851,0,0,0,377.4,136.3h0a14.646,14.646,0,0,0-4.963-4.546h0a14.664,14.664,0,0,0-7.359-1.737h0a15.5,15.5,0,0,0-7.329,1.633Zm-3.331,10.067a14.211,14.211,0,0,1,2.327-4.1h0a11.192,11.192,0,0,1,3.54-2.847h0a10.317,10.317,0,0,1,4.794-1.075h0a10.149,10.149,0,0,1,4.72,1.075h0a11.192,11.192,0,0,1,3.54,2.847h0a13.119,13.119,0,0,1,2.257,4.063h0a15.743,15.743,0,0,1,.868,4.789h-23.19a20.041,20.041,0,0,1,1.144-4.755Z" transform="translate(-5.246 -0.542)" fill-rule="evenodd" fill="url(#linear-gradient-6)"/>
      <path id="Path_88" data-name="Path 88" d="M416.266,131.1h-5.482l-10,13.608L390.577,131.1h-5.485l12.846,17.218-13.886,18.61h5.415L400.5,151.865l11.251,15.069h5.554l-13.957-18.678Z" transform="translate(-6.65 -0.586)" fill-rule="evenodd" fill="url(#linear-gradient-6)"/>
      <path id="Path_89" data-name="Path 89" d="M452.126,131.105h-4.375v18.817a22.742,22.742,0,0,1-.623,5.312h0a14.57,14.57,0,0,1-1.944,4.617h0a10.34,10.34,0,0,1-3.333,3.23h0a9.261,9.261,0,0,1-4.86,1.215h0q-5.213,0-7.328-2.5h0q-2.12-2.5-2.257-7.361h0V131.105h-4.373v23.261a21.323,21.323,0,0,0,.7,5.693h0a10.822,10.822,0,0,0,2.186,4.237h0a9.632,9.632,0,0,0,3.888,2.672h0a15.929,15.929,0,0,0,5.8.939h0a14.363,14.363,0,0,0,7.328-1.91h0a12.422,12.422,0,0,0,5.034-5.52h.139v6.458h4.026Z" transform="translate(-8.208 -0.586)" fill-rule="evenodd" fill="url(#linear-gradient-6)"/>
      <path id="Path_90" data-name="Path 90" d="M474.57,167.863h.078a23.919,23.919,0,0,0,4.987-.556h0a14.312,14.312,0,0,0,4.618-1.841h0a10.786,10.786,0,0,0,3.368-3.331h0a8.975,8.975,0,0,0,1.319-4.965,8.773,8.773,0,0,0-.9-4.1h0a9.351,9.351,0,0,0-2.325-2.916h0a12.056,12.056,0,0,0-3.265-1.91h0a16.817,16.817,0,0,0-3.712-1.005h0l-5.837-1.322c-.74-.182-1.552-.425-2.428-.727h0a11.82,11.82,0,0,1-2.432-1.145h0a6.52,6.52,0,0,1-1.841-1.7h0a4.1,4.1,0,0,1-.726-2.465h0a5.27,5.27,0,0,1,.762-2.917h0a5.943,5.943,0,0,1,2.015-1.91h0a9.086,9.086,0,0,1,2.741-1.04h0a14.249,14.249,0,0,1,2.953-.313h0a13.437,13.437,0,0,1,3.542.451h0a8.589,8.589,0,0,1,2.952,1.423h0a7.139,7.139,0,0,1,2.048,2.466h0a8.243,8.243,0,0,1,.832,3.506h4.372a12.949,12.949,0,0,0-1.179-5.069h0a10.553,10.553,0,0,0-2.812-3.612h0a11.571,11.571,0,0,0-4.1-2.152h0a17.571,17.571,0,0,0-5.031-.694h0a21,21,0,0,0-4.761.556h0a14.7,14.7,0,0,0-4.337,1.736h0a9.478,9.478,0,0,0-3.161,3.125h0a8.614,8.614,0,0,0-1.214,4.651h0a8.733,8.733,0,0,0,.761,3.854h0a7.6,7.6,0,0,0,2.119,2.639h0a12.71,12.71,0,0,0,3.161,1.806h0a31.631,31.631,0,0,0,3.955,1.283h0l5.627,1.252q1.459.347,2.881.833h0a11.087,11.087,0,0,1,2.534,1.214h0a5.743,5.743,0,0,1,1.774,1.806h0a5.043,5.043,0,0,1,.659,2.673h0a5.227,5.227,0,0,1-.937,3.159h0a7.567,7.567,0,0,1-2.4,2.118h0a10.566,10.566,0,0,1-3.162,1.179h0a16.325,16.325,0,0,1-3.3.349h0A11.728,11.728,0,0,1,467.448,162h0a8.634,8.634,0,0,1-3.225-6.7h-4.377q.554,6.6,4.48,9.582h0Q468.244,167.859,474.57,167.863Z" transform="translate(-9.679 -0.542)" fill-rule="evenodd" fill="url(#linear-gradient-6)"/>
      <path id="Path_91" data-name="Path 91" d="M515.479,160.8a10.613,10.613,0,0,0,2.211-.224,5.386,5.386,0,0,0,1.859-.756,3.775,3.775,0,0,0,1.282-1.43,4.909,4.909,0,0,0,.477-2.313,4.645,4.645,0,0,0-1.555-3.945,6.658,6.658,0,0,0-4.123-1.18h-8.6V160.8Zm-.452-15.228a5.678,5.678,0,0,0,3.469-1,3.8,3.8,0,0,0,1.357-3.267,4.159,4.159,0,0,0-.452-2.059,3.349,3.349,0,0,0-1.208-1.257,5.091,5.091,0,0,0-1.734-.63,11.594,11.594,0,0,0-2.037-.175h-7.388v8.392Zm1-14.523a22.362,22.362,0,0,1,4.675.452,10.1,10.1,0,0,1,3.617,1.481,6.918,6.918,0,0,1,2.339,2.739,9.633,9.633,0,0,1,.831,4.221,7.878,7.878,0,0,1-1.233,4.526,8.96,8.96,0,0,1-3.645,2.965,8.645,8.645,0,0,1,4.952,3.341,9.968,9.968,0,0,1,1.634,5.755,9.848,9.848,0,0,1-1.057,4.7,9.181,9.181,0,0,1-2.838,3.243,12.63,12.63,0,0,1-4.073,1.86,18.338,18.338,0,0,1-4.7.6H499.144V131.045Z" transform="translate(-11.25 -0.583)" fill="#30509f" fill-rule="evenodd"/>
      <path id="Path_92" data-name="Path 92" d="M558.954,140.585A7.983,7.983,0,0,0,557.2,138.6a8.243,8.243,0,0,0-5.177-1.809,9.226,9.226,0,0,0-4.524,1.03,8.545,8.545,0,0,0-3.016,2.766,12.052,12.052,0,0,0-1.681,3.944,19.555,19.555,0,0,0-.531,4.574,18.2,18.2,0,0,0,.531,4.4,11.8,11.8,0,0,0,1.681,3.843,8.639,8.639,0,0,0,3.016,2.741,9.205,9.205,0,0,0,4.524,1.028,7.313,7.313,0,0,0,5.655-2.211,10.249,10.249,0,0,0,2.488-5.828H567.8a18.2,18.2,0,0,1-1.555,6.082,14.559,14.559,0,0,1-3.318,4.621,14.091,14.091,0,0,1-4.825,2.916,17.693,17.693,0,0,1-6.082,1.005,18.4,18.4,0,0,1-7.412-1.431,15.8,15.8,0,0,1-5.553-3.945,17.419,17.419,0,0,1-3.471-5.907,21.706,21.706,0,0,1-1.207-7.312,22.493,22.493,0,0,1,1.207-7.465,17.9,17.9,0,0,1,3.471-6,15.817,15.817,0,0,1,5.553-4.022,19.275,19.275,0,0,1,13.017-.6,15.252,15.252,0,0,1,4.724,2.488,13.485,13.485,0,0,1,3.444,4.047,14.353,14.353,0,0,1,1.7,5.528h-7.636A6.509,6.509,0,0,0,558.954,140.585Z" transform="translate(-12.658 -0.548)" fill="#30509f" fill-rule="evenodd"/>
      <rect id="Rectangle_2330" data-name="Rectangle 2330" width="1.738" height="9.891" transform="translate(384.918 178.757)" fill="#30509f"/>
      <path id="Path_93" data-name="Path 93" d="M424.01,183.789a3.154,3.154,0,0,1-.708.054h-2.013V178.57h2.721a3.76,3.76,0,0,1,1.848.6,2.317,2.317,0,0,1,.812,1.9,2.5,2.5,0,0,1-.218,1.141,3.253,3.253,0,0,1-.652.869,2.377,2.377,0,0,1-1.032.543,1.88,1.88,0,0,1-.758.165Zm1.028,1.141a5.886,5.886,0,0,0,1.472-.543,4.462,4.462,0,0,0,1.085-.871,3.806,3.806,0,0,0,.706-1.2,3.719,3.719,0,0,0,.217-1.357,3.984,3.984,0,0,0-.324-1.633,2.864,2.864,0,0,0-.925-1.247,3.856,3.856,0,0,0-1.574-.763,14.493,14.493,0,0,0-1.684-.27h-4.622v14.02h1.9v-5.813h1.471a.829.829,0,0,1,.542.108.687.687,0,0,1,.375.328l.332.378,3.311,4.619a.83.83,0,0,0,.766.38h1.684l-4.077-5.544A1.68,1.68,0,0,0,425.038,184.93Z" transform="translate(-8.062 -2.422)" fill="#30509f" fill-rule="evenodd"/>
      <path id="Path_94" data-name="Path 94" d="M387.723,182.213a2.422,2.422,0,0,0-1.032-.758,3.588,3.588,0,0,0-1.414-.272,4.055,4.055,0,0,0-1.848.432,6,6,0,0,0-1.467,1.143l-.11-1.033a.431.431,0,0,0-.488-.381h-1.028v9.891h1.733v-7.282a5.38,5.38,0,0,1,1.254-1.032,3.223,3.223,0,0,1,1.467-.327,1.9,1.9,0,0,1,1.574.6,2.736,2.736,0,0,1,.488,1.737v6.306h1.741V184.93a4.479,4.479,0,0,0-.217-1.521A2.357,2.357,0,0,0,387.723,182.213Z" transform="translate(-6.502 -2.587)" fill="#30509f" fill-rule="evenodd"/>
      <path id="Path_95" data-name="Path 95" d="M401.551,189.368c-.057,0-.109.058-.217.11-.057.056-.163.108-.217.162a3.131,3.131,0,0,1-.385.165c-.107,0-.267.052-.43.052a1.128,1.128,0,0,1-.819-.324c-.214-.166-.267-.49-.267-.926v-5.922h2.823v-1.3h-2.823v-3.37h-.925a.49.49,0,0,0-.272.054.413.413,0,0,0-.11.272l-.38,3.044-1.627.217v.708c0,.107,0,.215.107.273a.287.287,0,0,0,.217.107h1.2v6.031a2.515,2.515,0,0,0,.652,1.9,2.424,2.424,0,0,0,1.794.654,3.272,3.272,0,0,0,1.3-.219,3.034,3.034,0,0,0,1.085-.649l-.487-.869A.3.3,0,0,0,401.551,189.368Z" transform="translate(-7.124 -2.46)" fill="#30509f" fill-rule="evenodd"/>
      <path id="Path_96" data-name="Path 96" d="M411.243,181.462a.552.552,0,0,0-.218.27l-2.609,6.193c-.054.164-.054.327-.108.434-.057.167-.11.331-.163.491a1.689,1.689,0,0,0-.107-.491c-.054-.107-.11-.27-.168-.379l-2.659-6.248a.292.292,0,0,0-.164-.27.771.771,0,0,0-.381-.11H403.2l4.073,9.346-1.794,3.915h1.25c.216,0,.328,0,.434-.11a.787.787,0,0,0,.217-.327l5.548-12.823h-1.418C411.406,181.352,411.3,181.352,411.243,181.462Z" transform="translate(-7.416 -2.594)" fill="#30509f" fill-rule="evenodd"/>
      <path id="Path_97" data-name="Path 97" d="M393.662,177.148a3.467,3.467,0,0,0-.438-.275,1.021,1.021,0,0,0-.435-.108,1.309,1.309,0,0,0-.488.108c-.163.112-.274.165-.434.275a1.053,1.053,0,0,0-.218.436c-.109.107-.109.272-.109.488a.591.591,0,0,0,.109.436.862.862,0,0,0,.218.379.939.939,0,0,0,.434.272.725.725,0,0,0,.488.109.579.579,0,0,0,.435-.109.755.755,0,0,0,.438-.272.981.981,0,0,0,.267-.379,1,1,0,0,0,.113-.436,1.029,1.029,0,0,0-.113-.488A1.164,1.164,0,0,0,393.662,177.148Z" transform="translate(-6.95 -2.411)" fill="#30509f" fill-rule="evenodd"/>
      <path id="Path_98" data-name="Path 98" d="M312.945,180.034a3.764,3.764,0,0,1,1.631-1.09,5.026,5.026,0,0,1,2.066-.381,6.56,6.56,0,0,1,1.089.058c.325.052.6.163.87.215a6.011,6.011,0,0,1,.594.327,2.251,2.251,0,0,0,.491.271,1.208,1.208,0,0,0,.324.219.3.3,0,0,0,.275.108c.107,0,.162,0,.216-.056.111-.053.111-.109.164-.163l.652-.87a7.184,7.184,0,0,0-2.011-1.3,6.673,6.673,0,0,0-2.663-.491,7.206,7.206,0,0,0-2.881.543,5.744,5.744,0,0,0-2.229,1.47,7.075,7.075,0,0,0-1.413,2.282,7.21,7.21,0,0,0-.542,2.882,8.342,8.342,0,0,0,.489,2.932,6.891,6.891,0,0,0,1.359,2.283,6.131,6.131,0,0,0,2.118,1.466,7.31,7.31,0,0,0,2.717.49,7.164,7.164,0,0,0,2.991-.542,5.415,5.415,0,0,0,2.066-1.574l-.7-.819a.844.844,0,0,0-.327-.11.474.474,0,0,0-.327.168,6.442,6.442,0,0,1-.707.542,5.924,5.924,0,0,1-.814.433,4.432,4.432,0,0,1-.925.219,7.486,7.486,0,0,1-1.141.053,4.535,4.535,0,0,1-1.9-.379,4.167,4.167,0,0,1-1.525-1.036,4.892,4.892,0,0,1-1.032-1.79,6.214,6.214,0,0,1-.381-2.334,6.306,6.306,0,0,1,.381-2.284A4.672,4.672,0,0,1,312.945,180.034Z" transform="translate(-3.674 -2.415)" fill="#30509f" fill-rule="evenodd"/>
      <path id="Path_99" data-name="Path 99" d="M330.288,189.062a2.456,2.456,0,0,1-2.172.977,3.2,3.2,0,0,1-1.3-.273,2.174,2.174,0,0,1-.872-.7,3.619,3.619,0,0,1-.6-1.2,6.753,6.753,0,0,1-.161-1.575,7.04,7.04,0,0,1,.161-1.574,4.223,4.223,0,0,1,.6-1.2,2.223,2.223,0,0,1,.872-.7,3.22,3.22,0,0,1,1.3-.273,2.459,2.459,0,0,1,2.172.977,5.418,5.418,0,0,1,0,5.545ZM331.6,182.6a3.618,3.618,0,0,0-1.524-1.032,4.472,4.472,0,0,0-1.956-.38,4.611,4.611,0,0,0-1.954.38,3.614,3.614,0,0,0-1.525,1.032,5.138,5.138,0,0,0-.923,1.573,7.04,7.04,0,0,0,0,4.243,5.374,5.374,0,0,0,.923,1.628,5.019,5.019,0,0,0,1.525,1.034,5.648,5.648,0,0,0,1.954.325,5.464,5.464,0,0,0,1.956-.325,5.027,5.027,0,0,0,1.524-1.034,5.292,5.292,0,0,0,.922-1.628,7.038,7.038,0,0,0,0-4.243A5.059,5.059,0,0,0,331.6,182.6Z" transform="translate(-4.226 -2.587)" fill="#30509f" fill-rule="evenodd"/>
      <path id="Path_100" data-name="Path 100" d="M348.055,182.16a2.661,2.661,0,0,0-1.033-.7,3.789,3.789,0,0,0-1.413-.273,3.511,3.511,0,0,0-1.848.488,2.8,2.8,0,0,0-.758.656,3.606,3.606,0,0,0-.544.92,2.891,2.891,0,0,0-.925-1.521,2.184,2.184,0,0,0-1.627-.542,3.114,3.114,0,0,0-1.577.432,4.448,4.448,0,0,0-1.2,1.09l-.164-.979a.415.415,0,0,0-.435-.381H335.5v9.891h1.738v-7.391a3.911,3.911,0,0,1,.983-.923,2.46,2.46,0,0,1,1.192-.326,1.7,1.7,0,0,1,1.414.542,2.925,2.925,0,0,1,.491,1.792v6.306h1.738V184.93a3.217,3.217,0,0,1,.16-1.03,1.654,1.654,0,0,1,.491-.707,2.069,2.069,0,0,1,.7-.489,1.726,1.726,0,0,1,.762-.109,1.855,1.855,0,0,1,1.52.6,2.639,2.639,0,0,1,.489,1.737v6.306h1.741V184.93a4.585,4.585,0,0,0-.217-1.573A3.6,3.6,0,0,0,348.055,182.16Z" transform="translate(-4.71 -2.587)" fill="#30509f" fill-rule="evenodd"/>
      <path id="Path_101" data-name="Path 101" d="M375.251,188.691a4.433,4.433,0,0,1-1.251.977,2.632,2.632,0,0,1-1.412.378,1.866,1.866,0,0,1-1.578-.651,2.672,2.672,0,0,1-.541-1.742v-6.3H368.73v6.3a6.732,6.732,0,0,0,.218,1.576,3.728,3.728,0,0,0,.652,1.141,2.437,2.437,0,0,0,1.033.763,3.116,3.116,0,0,0,1.409.272,3.427,3.427,0,0,0,1.848-.435,4.872,4.872,0,0,0,1.47-1.141l.16,1.086a.416.416,0,0,0,.435.327h1.033v-9.891h-1.738Z" transform="translate(-6.038 -2.594)" fill="#30509f" fill-rule="evenodd"/>
      <path id="Path_102" data-name="Path 102" d="M364.807,182.16a2.659,2.659,0,0,0-1.028-.7,3.807,3.807,0,0,0-1.418-.273,4.762,4.762,0,0,0-.919.107,4.688,4.688,0,0,0-.925.381,2.84,2.84,0,0,0-.761.656,3.809,3.809,0,0,0-.545.92,2.882,2.882,0,0,0-.923-1.521,2.136,2.136,0,0,0-1.573-.542,3.349,3.349,0,0,0-1.634.432,4.522,4.522,0,0,0-1.2,1.09l-.159-.979a.417.417,0,0,0-.435-.381h-1.037v9.891h1.742v-7.391a3.34,3.34,0,0,1,1.032-.923,2.2,2.2,0,0,1,1.2-.326,1.649,1.649,0,0,1,1.357.542,2.925,2.925,0,0,1,.491,1.792v6.306h1.738V184.93a3.14,3.14,0,0,1,.163-1.03,1.657,1.657,0,0,1,.489-.707,2.13,2.13,0,0,1,.708-.489,2.347,2.347,0,0,1,2.282.489,2.634,2.634,0,0,1,.492,1.737v6.306h1.738V184.93a4.562,4.562,0,0,0-.217-1.573A3.527,3.527,0,0,0,364.807,182.16Z" transform="translate(-5.379 -2.587)" fill="#30509f" fill-rule="evenodd"/>
      <path id="Path_103" data-name="Path 103" d="M457.817,189.062a2.629,2.629,0,0,1-2.229.977,3.226,3.226,0,0,1-1.3-.273,2.179,2.179,0,0,1-.872-.7,2.736,2.736,0,0,1-.541-1.2,4.574,4.574,0,0,1-.218-1.575,4.746,4.746,0,0,1,.218-1.574,3.05,3.05,0,0,1,.541-1.2,2.229,2.229,0,0,1,.872-.7,3.243,3.243,0,0,1,1.3-.273,2.631,2.631,0,0,1,2.229.977,5.807,5.807,0,0,1,0,5.545Zm1.249-6.467a3.606,3.606,0,0,0-1.524-1.032,4.3,4.3,0,0,0-1.955-.38,4.624,4.624,0,0,0-1.955.38,3.148,3.148,0,0,0-1.467,1.032,4.3,4.3,0,0,0-.979,1.573,7.038,7.038,0,0,0,0,4.243,4.484,4.484,0,0,0,.979,1.628,4.2,4.2,0,0,0,1.467,1.034,5.666,5.666,0,0,0,1.955.325,5.233,5.233,0,0,0,1.955-.325,5,5,0,0,0,1.524-1.034,5.275,5.275,0,0,0,.923-1.628,7.02,7.02,0,0,0,0-4.243A5.043,5.043,0,0,0,459.066,182.6Z" transform="translate(-9.32 -2.587)" fill="#30509f" fill-rule="evenodd"/>
      <path id="Path_104" data-name="Path 104" d="M478.911,181.183a2.752,2.752,0,0,0-1.739.542,4.3,4.3,0,0,0-1.248,1.631l-.108-1.523a.852.852,0,0,0-.167-.378.622.622,0,0,0-.378-.111H474.24v9.891h1.737V184.93a4.2,4.2,0,0,1,1.034-1.521,2.177,2.177,0,0,1,1.523-.544,2.842,2.842,0,0,1,.811.112,1.878,1.878,0,0,0,.438.109c.109,0,.215-.109.272-.274l.218-1.3a2,2,0,0,0-.6-.273A3.473,3.473,0,0,0,478.911,181.183Z" transform="translate(-10.255 -2.587)" fill="#30509f" fill-rule="evenodd"/>
      <path id="Path_105" data-name="Path 105" d="M488.939,189.062a.474.474,0,0,0-.328.161,2.846,2.846,0,0,1-.43.329c-.218.108-.435.214-.709.324a2.736,2.736,0,0,1-1.032.163,2.766,2.766,0,0,1-1.2-.218,2.465,2.465,0,0,1-.923-.759,5,5,0,0,1-.6-1.2,6.8,6.8,0,0,1-.163-1.575,7.094,7.094,0,0,1,.163-1.574,3.556,3.556,0,0,1,.545-1.142,2.625,2.625,0,0,1,.975-.762,3.2,3.2,0,0,1,1.249-.273,5.06,5.06,0,0,1,.979.108c.217.112.435.165.6.275.213.108.327.216.438.272a.387.387,0,0,0,.323.109c.108,0,.165,0,.217-.056.054,0,.11-.053.164-.16l.489-.6a4.759,4.759,0,0,0-1.418-.977,5.01,5.01,0,0,0-1.844-.325,4.568,4.568,0,0,0-2.012.38,4.143,4.143,0,0,0-1.463,1.032,5.9,5.9,0,0,0-.926,1.632,8.564,8.564,0,0,0-.271,2.063,6.761,6.761,0,0,0,.324,2.172,4.422,4.422,0,0,0,.926,1.577,4.079,4.079,0,0,0,1.357,1.034,4.705,4.705,0,0,0,1.738.325,5.346,5.346,0,0,0,2.069-.381,3.452,3.452,0,0,0,1.629-1.141l-.49-.653A.486.486,0,0,0,488.939,189.062Z" transform="translate(-10.556 -2.587)" fill="#30509f" fill-rule="evenodd"/>
      <path id="Path_106" data-name="Path 106" d="M538.739,182.213a2.766,2.766,0,0,0-1.031-.758,4.1,4.1,0,0,0-1.469-.272,4.215,4.215,0,0,0-1.846.432,5.719,5.719,0,0,0-1.414,1.143l-.16-1.033a.42.42,0,0,0-.438-.381h-1.087v9.891h1.794v-7.282a5.1,5.1,0,0,1,1.2-1.032,3.384,3.384,0,0,1,1.464-.327,1.91,1.91,0,0,1,1.576.6,2.736,2.736,0,0,1,.488,1.737v6.306h1.741V184.93a4.476,4.476,0,0,0-.221-1.521A2.71,2.71,0,0,0,538.739,182.213Z" transform="translate(-12.535 -2.587)" fill="#30509f" fill-rule="evenodd"/>
      <path id="Path_107" data-name="Path 107" d="M469.157,188.691a4.116,4.116,0,0,1-1.2.977,2.608,2.608,0,0,1-1.41.378,1.867,1.867,0,0,1-1.576-.651,2.666,2.666,0,0,1-.489-1.742v-6.3h-1.793v6.3a7,7,0,0,0,.216,1.576,3.981,3.981,0,0,0,.652,1.141,2.85,2.85,0,0,0,1.033.763,3.216,3.216,0,0,0,1.466.272,3.251,3.251,0,0,0,1.8-.435,4.684,4.684,0,0,0,1.413-1.141l.163,1.086a.415.415,0,0,0,.435.327H470.9v-9.891h-1.742Z" transform="translate(-9.793 -2.594)" fill="#30509f" fill-rule="evenodd"/>
      <path id="Path_108" data-name="Path 108" d="M495.732,185.2h-2.66a3.607,3.607,0,0,1,.866-2.008,2.665,2.665,0,0,1,1.794-.708h.221a3.477,3.477,0,0,1,1.082.162,2.662,2.662,0,0,1,.762.6,2.287,2.287,0,0,1,.488.871,3.435,3.435,0,0,1,.164,1.085Zm3.155-2.875a3.3,3.3,0,0,0-1.307-.818,4.4,4.4,0,0,0-1.684-.325h-.164a4.3,4.3,0,0,0-1.741.381,3.572,3.572,0,0,0-1.464,1.031,4.139,4.139,0,0,0-.925,1.573,5.633,5.633,0,0,0-.325,1.9,7.207,7.207,0,0,0,.325,2.281,5.227,5.227,0,0,0,1.032,1.688,4.2,4.2,0,0,0,1.468,1.033,7.989,7.989,0,0,0,1.63.325H496a7.342,7.342,0,0,0,2.173-.381,3.067,3.067,0,0,0,.925-.488,2.36,2.36,0,0,0,.815-.654l-.487-.653a.47.47,0,0,0-.328-.161.866.866,0,0,0-.435.161,5.149,5.149,0,0,1-.541.329c-.22.108-.544.215-.814.324a3.65,3.65,0,0,1-1.143.164,1.17,1.17,0,0,1-.435-.056,2.548,2.548,0,0,1-.868-.217,2.333,2.333,0,0,1-.98-.654,3.466,3.466,0,0,1-.649-1.194,6.554,6.554,0,0,1-.22-1.629h6.573a.453.453,0,0,0,.327-.108,1.128,1.128,0,0,0,.11-.542,5.215,5.215,0,0,0-.325-1.9A5.152,5.152,0,0,0,498.886,182.326Z" transform="translate(-10.935 -2.587)" fill="#30509f" fill-rule="evenodd"/>
      <path id="Path_109" data-name="Path 109" d="M516.809,188.18a.479.479,0,0,0-.327.167,7.278,7.278,0,0,1-.759.543,4.085,4.085,0,0,1-.815.433,3.71,3.71,0,0,1-.925.218,7,7,0,0,1-1.086.054,4.643,4.643,0,0,1-1.956-.379,4.14,4.14,0,0,1-1.524-1.036,5.753,5.753,0,0,1-1.032-1.791,6.186,6.186,0,0,1-.382-2.333,6.3,6.3,0,0,1,.382-2.285,5.516,5.516,0,0,1,1.032-1.737,4.513,4.513,0,0,1,1.63-1.09,5.194,5.194,0,0,1,2.069-.381,6.31,6.31,0,0,1,1.083.057c.331.053.6.164.872.216a6.139,6.139,0,0,1,.6.326c.22.109.38.218.491.273a1.239,1.239,0,0,0,.324.217.3.3,0,0,0,.27.108.412.412,0,0,0,.276-.055l.16-.163.6-.87a7.23,7.23,0,0,0-2.012-1.3,6.463,6.463,0,0,0-2.66-.491,6.736,6.736,0,0,0-2.826.543A6.358,6.358,0,0,0,508,178.89a7.073,7.073,0,0,0-1.41,2.282,7.167,7.167,0,0,0-.543,2.883,8.274,8.274,0,0,0,.491,2.932,6.889,6.889,0,0,0,1.358,2.282,6.3,6.3,0,0,0,4.891,1.957,6.9,6.9,0,0,0,2.934-.543,6.039,6.039,0,0,0,2.119-1.573l-.762-.819C516.973,188.238,516.92,188.18,516.809,188.18Z" transform="translate(-11.526 -2.415)" fill="#30509f" fill-rule="evenodd"/>
      <path id="Path_110" data-name="Path 110" d="M435.788,185.2h-2.662a3.248,3.248,0,0,1,.872-2.008,2.537,2.537,0,0,1,1.79-.708h.218a3.53,3.53,0,0,1,1.09.162,2.714,2.714,0,0,1,.758.6,2.291,2.291,0,0,1,.491.871,3.521,3.521,0,0,1,.16,1.085Zm3.1-2.875a2.686,2.686,0,0,0-1.3-.818,3.939,3.939,0,0,0-1.63-.325h-.165a4.757,4.757,0,0,0-1.79.381,3.839,3.839,0,0,0-1.417,1.031,4.249,4.249,0,0,0-.923,1.573,5.656,5.656,0,0,0-.324,1.9,7.236,7.236,0,0,0,.324,2.281,6.19,6.19,0,0,0,.98,1.688,5.034,5.034,0,0,0,1.521,1.033,7.968,7.968,0,0,0,1.629.325h.275a7.786,7.786,0,0,0,1.083-.107,8.082,8.082,0,0,0,1.09-.275,3.087,3.087,0,0,0,.923-.488,2.384,2.384,0,0,0,.814-.654l-.487-.653a.494.494,0,0,0-.381-.161.723.723,0,0,0-.381.161,4.454,4.454,0,0,1-.545.329c-.266.108-.541.215-.811.324a3.624,3.624,0,0,1-1.143.164,1.182,1.182,0,0,1-.435-.056,2.58,2.58,0,0,1-.868-.217,2.354,2.354,0,0,1-.979-.654,3.586,3.586,0,0,1-.652-1.194,4.723,4.723,0,0,1-.217-1.629h6.576a.447.447,0,0,0,.324-.108,1.174,1.174,0,0,0,.111-.542,5.173,5.173,0,0,0-.327-1.9A4.108,4.108,0,0,0,438.887,182.326Z" transform="translate(-8.54 -2.587)" fill="#30509f" fill-rule="evenodd"/>
      <path id="Path_111" data-name="Path 111" d="M554.929,181.183a2.756,2.756,0,0,0-1.739.542,4.326,4.326,0,0,0-1.248,1.631l-.108-1.523a.8.8,0,0,0-.167-.378.609.609,0,0,0-.378-.111h-1.031v9.891h1.793V184.93a4.109,4.109,0,0,1,.976-1.521,2.187,2.187,0,0,1,1.521-.544,2.582,2.582,0,0,1,.814.112,1.89,1.89,0,0,0,.438.109c.16,0,.217-.109.271-.274l.218-1.3a2.043,2.043,0,0,0-.6-.273A3.461,3.461,0,0,0,554.929,181.183Z" transform="translate(-13.293 -2.587)" fill="#30509f" fill-rule="evenodd"/>
      <path id="Path_112" data-name="Path 112" d="M524.373,185.2h-2.715a3.3,3.3,0,0,1,.921-2.008,2.461,2.461,0,0,1,1.794-.708h.214a3.211,3.211,0,0,1,1.037.162,2.369,2.369,0,0,1,1.3,1.469,3.548,3.548,0,0,1,.163,1.085Zm3.1-2.875a3.261,3.261,0,0,0-1.3-.818,3.943,3.943,0,0,0-1.627-.325h-.165a4.773,4.773,0,0,0-1.794.381,3.959,3.959,0,0,0-1.466,1.031,5.061,5.061,0,0,0-.925,1.573,7.3,7.3,0,0,0-.272,1.9,7.122,7.122,0,0,0,.327,2.281,4.3,4.3,0,0,0,.977,1.688,5.067,5.067,0,0,0,1.523,1.033,7.272,7.272,0,0,0,1.63.325h.272a8.792,8.792,0,0,0,1.085-.107,7.2,7.2,0,0,0,1.033-.275,3.4,3.4,0,0,0,.98-.488,2.216,2.216,0,0,0,.762-.654l-.492-.653a.323.323,0,0,0-.324-.161.723.723,0,0,0-.385.161,5.394,5.394,0,0,1-.593.329,6.28,6.28,0,0,1-.816.324,3.6,3.6,0,0,1-1.14.164.9.9,0,0,1-.381-.056,2.276,2.276,0,0,1-.868-.217,2.33,2.33,0,0,1-.979-.654,3.5,3.5,0,0,1-.653-1.194,4.639,4.639,0,0,1-.273-1.629h6.63a.45.45,0,0,0,.326-.108,1.172,1.172,0,0,0,.107-.542,5.172,5.172,0,0,0-.324-1.9A4.1,4.1,0,0,0,527.469,182.326Z" transform="translate(-12.08 -2.587)" fill="#30509f" fill-rule="evenodd"/>
      <path id="Path_113" data-name="Path 113" d="M448.168,186.451c-.271-.16-.545-.324-.816-.486-.324-.107-.652-.219-.978-.325s-.6-.217-.923-.329a1.851,1.851,0,0,1-.816-.323,1.733,1.733,0,0,1-.6-.437.86.86,0,0,1-.216-.651,1.9,1.9,0,0,1,.107-.543,1.64,1.64,0,0,1,.438-.435.9.9,0,0,1,.6-.326,3.127,3.127,0,0,1,.757-.109,3.736,3.736,0,0,1,.873.109,1.844,1.844,0,0,1,.652.271,4.059,4.059,0,0,1,.488.22.815.815,0,0,0,.324.107.3.3,0,0,0,.328-.216l.433-.651a4.241,4.241,0,0,0-1.356-.818,4.587,4.587,0,0,0-1.8-.325,4.109,4.109,0,0,0-1.467.218,3.9,3.9,0,0,0-1.142.652,2.863,2.863,0,0,0-.652.924,2.4,2.4,0,0,0-.218,1.085,2.275,2.275,0,0,0,.218,1.086,2.473,2.473,0,0,0,.544.762,4.457,4.457,0,0,0,.87.488c.27.11.6.272.922.382s.655.162.978.269c.271.11.546.219.816.331a1.655,1.655,0,0,1,.6.486,1.158,1.158,0,0,1,.217.654,1.423,1.423,0,0,1-.164.652,1.109,1.109,0,0,1-.376.49,2.387,2.387,0,0,1-.6.379,4.4,4.4,0,0,1-.926.11,4.926,4.926,0,0,1-.976-.11c-.274-.108-.49-.218-.708-.326-.164-.109-.328-.219-.434-.272a.734.734,0,0,0-.381-.161.491.491,0,0,0-.488.271l-.381.65a4.1,4.1,0,0,0,1.41.871,5.142,5.142,0,0,0,1.9.325,4.6,4.6,0,0,0,1.578-.219A3.609,3.609,0,0,0,448,190.53a3.213,3.213,0,0,0,.709-1.035,3.262,3.262,0,0,0,.271-1.249,2.713,2.713,0,0,0-.217-1.034A2.938,2.938,0,0,0,448.168,186.451Z" transform="translate(-8.963 -2.587)" fill="#30509f" fill-rule="evenodd"/>
      <path id="Path_114" data-name="Path 114" d="M547.3,189.368c-.053,0-.107.058-.217.11-.053.056-.16.108-.217.162a2.814,2.814,0,0,1-.381.165c-.107,0-.271.052-.488.052a1.086,1.086,0,0,1-.761-.324,1.124,1.124,0,0,1-.324-.926v-5.922h2.877v-1.3h-2.877v-3.37h-.872a.417.417,0,0,0-.272.054.428.428,0,0,0-.11.272l-.43,3.044-1.577.217v.708c0,.107,0,.215.107.273a.288.288,0,0,0,.221.107h1.2v6.031a2.5,2.5,0,0,0,.652,1.9,2.422,2.422,0,0,0,1.794.654,3.279,3.279,0,0,0,1.3-.219,3.046,3.046,0,0,0,1.082-.649l-.484-.869A.3.3,0,0,0,547.3,189.368Z" transform="translate(-12.949 -2.46)" fill="#30509f" fill-rule="evenodd"/>
      <path id="Path_115" data-name="Path 115" d="M559.576,185.2a3.3,3.3,0,0,1,.868-2.008,2.47,2.47,0,0,1,1.794-.708h.218a2.934,2.934,0,0,1,1.032.162,2.343,2.343,0,0,1,.816.6,2.263,2.263,0,0,1,.488.871,3.437,3.437,0,0,1,.164,1.085h-5.38Zm6.522,1.089a.457.457,0,0,0,.325-.108,1.152,1.152,0,0,0,.11-.542,5.133,5.133,0,0,0-.328-1.9,4.13,4.13,0,0,0-.865-1.412,2.682,2.682,0,0,0-1.306-.818,3.956,3.956,0,0,0-1.635-.325h-.161a4.8,4.8,0,0,0-1.794.381,4.5,4.5,0,0,0-1.463,1.031,4.024,4.024,0,0,0-.868,1.573,5.541,5.541,0,0,0-.327,1.9,7.093,7.093,0,0,0,.327,2.281,6.086,6.086,0,0,0,.975,1.688,5.09,5.09,0,0,0,1.52,1.033,7.35,7.35,0,0,0,1.63.325h.272a7.883,7.883,0,0,0,1.089-.107,5.806,5.806,0,0,0,1.034-.275,2.8,2.8,0,0,0,.978-.488,2.221,2.221,0,0,0,.758-.654l-.488-.653a.328.328,0,0,0-.327-.161.7.7,0,0,0-.377.161,3.007,3.007,0,0,1-.6.329,6.558,6.558,0,0,1-.819.324,3.24,3.24,0,0,1-1.085.164,1.167,1.167,0,0,1-.436-.056,2.281,2.281,0,0,1-.868-.217,2.358,2.358,0,0,1-.978-.654,3.537,3.537,0,0,1-.653-1.194,6.589,6.589,0,0,1-.274-1.629H566.1Z" transform="translate(-13.594 -2.587)" fill="#30509f" fill-rule="evenodd"/>
      <path id="Path_116" data-name="Path 116" d="M267.53,171.7a21.828,21.828,0,1,1-2.2-30.787,21.848,21.848,0,0,1,2.2,30.787Zm7.167-36.429a28.852,28.852,0,0,0-40.635,2.858,29.434,29.434,0,0,0-2.074,2.758,28.8,28.8,0,0,0,43.219,37.47,32.216,32.216,0,0,0,2.4-2.489A28.854,28.854,0,0,0,274.7,135.273Z" transform="translate(-0.375 -0.471)" fill="#f9b815" fill-rule="evenodd"/>
      <path id="Path_117" data-name="Path 117" d="M280.725,175.128a27.612,27.612,0,0,1-5.467,5.235,28.221,28.221,0,0,1-27.927,2.847,28.334,28.334,0,0,1-16.916-6.867,28.651,28.651,0,0,1,32.964-46.54,28.324,28.324,0,0,1,13.6,6.238l.484.414a31.846,31.846,0,0,1,4.143,4.593,28.229,28.229,0,0,1-.883,34.079Zm-.507-49.465c-.052-.043-.1-.089-.154-.133a37.885,37.885,0,0,0-53.2,3.942,38.561,38.561,0,0,0-2.746,3.5,37.843,37.843,0,1,0,56.1-7.3Z" transform="translate(0 0)" fill="#30509f" fill-rule="evenodd"/>
      <path id="Path_118" data-name="Path 118" d="M281.941,141.4a26.164,26.164,0,0,0-15.805-10.275,28.186,28.186,0,0,1,3.413,2.5,28.606,28.606,0,0,1-11.992,49.411,26.228,26.228,0,0,0,18.46-4.756,27.408,27.408,0,0,0,4.495-4.13A26.441,26.441,0,0,0,281.941,141.4Z" transform="translate(-1.595 -0.587)" fill="#30509f" fill-rule="evenodd"/>
      <path id="Path_119" data-name="Path 119" d="M275.992,173.769c-.3.355-.6.71-.905,1.061a26.694,26.694,0,0,1-39.4-36,7.347,7.347,0,0,1,.968-1.02,26.655,26.655,0,0,1,39.335,35.96Zm-.436-39.319c-.043-.039-.087-.076-.13-.11l-2.037-1.761a28.5,28.5,0,0,0-38.085,2.675,17.044,17.044,0,0,0-1.6,1.855,28.455,28.455,0,0,0,2.4,38.394c.053.032.1.078.146.111l2.021,1.759a28.51,28.51,0,0,0,38.089-2.674c.117-.132.229-.267.306-.352A28.461,28.461,0,0,0,275.556,134.45Z" transform="translate(-0.389 -0.403)" fill="#00adee" fill-rule="evenodd"/>
      <path id="Path_120" data-name="Path 120" d="M276.228,173.3a27.535,27.535,0,0,1-4.549,4.179,26.768,26.768,0,1,1,4.549-4.179Zm2.72-32.907a32.155,32.155,0,0,0-4.186-4.649l-.492-.42a28.582,28.582,0,0,0-35.109-1.345,35.28,35.28,0,0,0-4.133,3.6,28.573,28.573,0,0,0-2.283,36.18,24.445,24.445,0,0,0,4.193,4.65l.4.342a28.627,28.627,0,0,0,35.186,1.433,27.928,27.928,0,0,0,5.533-5.3A28.57,28.57,0,0,0,278.948,140.39Z" transform="translate(-0.388 -0.485)" fill="#f05d22" fill-rule="evenodd"/>
      <path id="Path_121" data-name="Path 121" d="M280.824,176.7a33.215,33.215,0,1,1-3.344-46.852,33.315,33.315,0,0,1,3.344,46.852Zm-3.058-47.369a33.932,33.932,0,0,0-47.708,3.367l-.042.045a33.881,33.881,0,1,0,51.206,44.381l.041-.039A33.943,33.943,0,0,0,277.766,129.326Z" transform="translate(-0.164 -0.186)" fill="#00adee" fill-rule="evenodd"/>
    </g>
  </g>
</svg>
