<svg xmlns="http://www.w3.org/2000/svg" xmlns:xlink="http://www.w3.org/1999/xlink" width="432" height="408" viewBox="0 0 432 408">
  <defs>
    <clipPath id="clip-path">
      <rect id="Rectangle_2343" data-name="Rectangle 2343" width="432" height="408" transform="translate(144 264)" fill="none" stroke="#707070" stroke-width="1"/>
    </clipPath>
  </defs>
  <g id="Mask_Group_7" data-name="Mask Group 7" transform="translate(-144 -264)" clip-path="url(#clip-path)">
    <g id="Logo_Icon_BG" data-name="Logo Icon BG" transform="translate(-499.273 -284.821)" opacity="0.095">
      <path id="Path_122" data-name="Path 122" d="M674.682,608.718C588,708.7,435.173,719.648,334.749,632.532c-100.519-87.138-111.5-239.848-24.695-339.933,87.116-100.382,239.7-111.365,340.326-24.207,100.541,87.127,111.418,239.816,24.3,340.326ZM753.9,206.035c-132.7-115.122-334.595-100.742-449.186,31.593-8.4,9.583-15.738,20.047-22.923,30.489-89.271,131.465-68.3,312.415,54.919,419.207,122.678,106.441,305.422,101.942,422.826-5.009A356.177,356.177,0,0,0,786.047,654.8C900.692,522.5,886.206,320.679,753.9,206.035Z" transform="translate(90.245 113.31)" fill="#f9b815" fill-rule="evenodd"/>
      <path id="Path_123" data-name="Path 123" d="M914.932,765.114a305.224,305.224,0,0,1-60.437,57.869c-92.709,66.847-210.654,74.817-308.7,31.476-66.783-4.086-132.77-28.876-186.988-75.91-132.219-114.528-146.057-315.27-32.007-446.9C427.233,215.907,594.44,190.66,723.189,264.1a313.1,313.1,0,0,1,150.366,68.959l5.349,4.574A352.081,352.081,0,0,1,924.695,388.4c83.285,115.791,75.57,270.476-9.763,376.715Zm-5.6-546.788c-.573-.478-1.146-.987-1.7-1.475C733.557,67.579,469.916,86.915,319.582,260.425a426.3,426.3,0,0,0-30.351,38.65c-116.969,172.673-89.016,411.216,72.28,551.117,161.5,139.891,401.166,133.322,555.331-7.121a419.092,419.092,0,0,0,34.564-34.978C1102.2,634.031,1083.444,369.17,909.328,218.326Z" transform="translate(0 0)" fill="#30509f" fill-rule="evenodd"/>
      <path id="Path_124" data-name="Path 124" d="M527.1,244.707c-43.691-60.554-106.7-98.97-174.71-113.583a311.568,311.568,0,0,1,37.727,27.613c131.656,114.082,145.548,314.793,31.465,446.4a314.942,314.942,0,0,1-164.023,99.8c69.9,8.15,142.8-8.384,204.053-52.573A302.977,302.977,0,0,0,511.3,606.7C597.946,506.831,607.869,356.529,527.1,244.707Z" transform="translate(383.642 141.081)" fill="#30509f" fill-rule="evenodd"/>
      <path id="Path_125" data-name="Path 125" d="M764.791,648.748c-3.343,3.927-6.643,7.853-10.007,11.727-112.034,116.406-300.264,119.77-417.095,7.354-112.883-109.062-119.855-288.325-18.4-405.3a81.219,81.219,0,0,1,10.7-11.281C442.252,133.415,629.028,130.635,747,242.976c112.957,108.988,119.229,287.795,17.786,405.772Zm-4.818-434.637c-.478-.435-.966-.838-1.433-1.22l-22.519-19.463c-125.49-98.578-308.064-87.8-420.99,29.566A188.384,188.384,0,0,0,297.3,243.5C195.6,368.806,205.162,553.736,323.85,667.9c.584.35,1.061.86,1.613,1.231L347.8,688.576c125.565,98.524,308.192,87.806,421.043-29.555,1.295-1.465,2.536-2.95,3.385-3.895C889.178,530.124,883.734,333.361,759.973,214.111Z" transform="translate(93.524 96.893)" fill="#00adee" fill-rule="evenodd"/>
      <path id="Path_126" data-name="Path 126" d="M767.64,622.779a304.37,304.37,0,0,1-50.281,46.2c-131.815,95.044-316.745,65.2-412.415-66.889-81.057-112.7-71.113-264.819,16.566-366.018a295.066,295.066,0,0,1,49.931-45.675c132.123-95.574,317.17-65.68,412.2,65.966,81.736,113.191,71.707,265.307-16,366.421ZM797.7,259.021a355.458,355.458,0,0,0-46.27-51.4l-5.444-4.648c-107.863-90.852-268.809-101.634-388.1-14.868A389.976,389.976,0,0,0,312.2,227.948c-100.69,108.118-115.112,276.28-25.236,399.935a270.23,270.23,0,0,0,46.355,51.406l4.436,3.778c107.874,91.881,269.329,102.122,388.951,15.844a308.727,308.727,0,0,0,61.158-58.58C874.219,532.786,882.051,376.191,797.7,259.021Z" transform="translate(93.297 116.728)" fill="#f05d22" fill-rule="evenodd"/>
      <path id="Path_127" data-name="Path 127" d="M874.724,735.757c-132.25,152.594-365.2,169.224-517.933,36.984-153.029-132.728-169.3-365.307-36.984-517.922,132.728-153.146,364.85-169.595,517.954-36.963,152.552,132.25,169.712,364.84,36.963,517.9Zm-33.8-523.621C685.453,77.371,448.768,94.223,313.556,249.353l-.467.5C177.974,405.8,194.731,643.43,350.339,778.175,506.392,913.449,743.97,896.5,879.128,740.448l.456-.435C1013.967,584.065,997.083,347.422,840.923,212.136Z" transform="translate(39.487 44.628)" fill="#00adee" fill-rule="evenodd"/>
    </g>
  </g>
</svg>
