<svg xmlns="http://www.w3.org/2000/svg" width="452" height="434" viewBox="0 0 452 434">
  <g id="Group_273" data-name="Group 273" transform="translate(-846 -1790.707)">
    <rect id="Rectangle_260" data-name="Rectangle 260" width="452" height="434" transform="translate(846 1790.707)" fill="none"/>
    <g id="Logo_Icon_BG" data-name="Logo Icon BG" transform="translate(886.507 1821.61)" opacity="0.626">
      <path id="Path_122" data-name="Path 122" d="M426.777,342.63c-38.678,44.611-106.87,49.5-151.68,10.626-44.852-38.881-49.754-107.022-11.019-151.68a107.665,107.665,0,0,1,162.7,141.054Zm35.349-179.68c-59.21-51.368-149.3-44.952-200.43,14.1a145.192,145.192,0,0,0-10.228,13.6c-39.833,58.661-30.476,139.4,24.505,187.053,54.74,47.495,136.281,45.487,188.668-2.235a158.923,158.923,0,0,0,11.829-12.279C527.624,304.16,521.161,214.1,462.126,162.95Z" transform="translate(-182.577 -72.415)" fill="#f9b815" fill-rule="evenodd"/>
      <path id="Path_123" data-name="Path 123" d="M528.779,405.886a136.2,136.2,0,0,1-26.967,25.821c-41.367,29.827-94,33.384-137.744,14.045a139.752,139.752,0,0,1-83.435-33.871c-59-51.1-65.172-140.675-14.282-199.412,44.815-51.643,119.424-62.908,176.872-30.14a139.707,139.707,0,0,1,67.094,30.77l2.387,2.041a157.111,157.111,0,0,1,20.433,22.654,139.235,139.235,0,0,1-4.356,168.093Zm-2.5-243.98c-.256-.213-.511-.44-.758-.658C447.849,94.642,330.21,103.269,263.13,180.691a190.2,190.2,0,0,0-13.543,17.246c-52.192,77.048-39.719,183.487,32.252,245.912,72.061,62.42,179,59.489,247.792-3.177a187.042,187.042,0,0,0,15.423-15.608C612.338,347.4,603.971,229.213,526.279,161.906Z" transform="translate(-217.645 -116.447)" fill="#30509f" fill-rule="evenodd"/>
      <path id="Path_124" data-name="Path 124" d="M377.828,181.806a129.049,129.049,0,0,0-77.957-50.682,139.019,139.019,0,0,1,16.834,12.321c58.746,50.9,64.944,140.462,14.04,199.185a140.53,140.53,0,0,1-73.188,44.531,129.366,129.366,0,0,0,91.05-23.458,135.2,135.2,0,0,0,22.171-20.371A130.416,130.416,0,0,0,377.828,181.806Z" transform="translate(-68.565 -61.624)" fill="#30509f" fill-rule="evenodd"/>
      <path id="Path_125" data-name="Path 125" d="M467.173,359.545c-1.492,1.752-2.964,3.5-4.465,5.233-49.99,51.941-133.98,53.442-186.111,3.282-50.369-48.664-53.48-128.653-8.211-180.85a36.24,36.24,0,0,1,4.773-5.034C323.254,129.6,406.6,128.36,459.237,178.487c50.4,48.631,53.2,128.416,7.936,181.058Zm-2.15-193.938c-.213-.194-.431-.374-.639-.545l-10.048-8.685a140.572,140.572,0,0,0-187.848,13.193,84.067,84.067,0,0,0-7.912,9.148,140.349,140.349,0,0,0,11.848,189.373c.26.156.474.384.72.549l9.968,8.675c56.028,43.962,137.517,39.18,187.872-13.188.578-.653,1.132-1.316,1.511-1.738C522.676,306.614,520.246,218.818,465.024,165.607Z" transform="translate(-181.303 -78.795)" fill="#00adee" fill-rule="evenodd"/>
      <path id="Path_126" data-name="Path 126" d="M468.432,349.1A135.813,135.813,0,0,1,446,369.713c-58.817,42.409-141.334,29.094-184.022-29.846-36.168-50.289-31.731-118.164,7.392-163.32a131.661,131.661,0,0,1,22.279-20.381C350.6,113.52,433.168,126.86,475.572,185.6a132.023,132.023,0,0,1-7.141,163.5Zm13.415-162.311A158.6,158.6,0,0,0,461.2,163.856l-2.429-2.074c-48.129-40.539-119.944-45.35-173.174-6.634a174.016,174.016,0,0,0-20.385,17.776c-44.928,48.243-51.363,123.278-11.26,178.454a120.575,120.575,0,0,0,20.684,22.938L276.615,376c48.134,41,120.176,45.567,173.552,7.07a137.751,137.751,0,0,0,27.289-26.139A140.918,140.918,0,0,0,481.846,186.789Z" transform="translate(-181.391 -71.087)" fill="#f05d22" fill-rule="evenodd"/>
      <path id="Path_127" data-name="Path 127" d="M513.113,395.358c-59.011,68.089-162.955,75.509-231.105,16.5-68.283-59.224-75.542-163-16.5-231.1,59.224-68.335,162.8-75.674,231.114-16.493,68.07,59.011,75.727,162.794,16.493,231.091ZM498.031,161.715c-69.372-60.133-174.983-52.614-235.315,16.607l-.208.223c-60.289,69.585-52.812,175.617,16.621,235.741,69.632,60.36,175.641,52.8,235.949-16.834l.2-.194C575.244,327.672,567.711,222.08,498.031,161.715Z" transform="translate(-202.301 -99.105)" fill="#00adee" fill-rule="evenodd"/>
    </g>
  </g>
</svg>
