<svg xmlns="http://www.w3.org/2000/svg" xmlns:xlink="http://www.w3.org/1999/xlink" width="1920" height="648" viewBox="0 0 1920 648">
  <defs>
    <clipPath id="clip-path">
      <rect id="Rectangle_2351" data-name="Rectangle 2351" width="1920" height="648" transform="translate(0 1488)" fill="none" stroke="#707070" stroke-width="1"/>
    </clipPath>
  </defs>
  <g id="Mask_Group_7" data-name="Mask Group 7" transform="translate(0 -1488)" clip-path="url(#clip-path)">
    <g id="Logo_Icon_BG" data-name="Logo Icon BG" transform="translate(1105.354 1413.066)" opacity="0.095">
      <path id="Path_122" data-name="Path 122" d="M526.843,450.036c-58.054,66.96-160.41,74.295-227.668,15.949-67.322-58.36-74.679-160.637-16.539-227.668,58.346-67.23,160.538-74.586,227.931-16.212,67.336,58.353,74.622,160.616,16.276,227.931ZM579.9,180.341c-88.872-77.1-224.093-67.472-300.84,21.159a217.919,217.919,0,0,0-15.352,20.42c-59.788,88.048-45.744,209.238,36.781,280.761,82.163,71.288,204.554,68.275,283.185-3.355A238.548,238.548,0,0,0,601.43,480.9C678.212,392.294,668.511,257.123,579.9,180.341Z" transform="translate(57.341 71.996)" fill="#f9b815" fill-rule="evenodd"/>
      <path id="Path_123" data-name="Path 123" d="M684.649,550.888a204.424,204.424,0,0,1-40.477,38.757c-62.091,44.77-141.084,50.108-206.751,21.081a209.765,209.765,0,0,1-125.234-50.84c-88.553-76.7-97.821-211.15-21.436-299.312C358.016,183.06,470,166.151,556.23,215.335A209.7,209.7,0,0,1,656.937,261.52l3.582,3.063a235.8,235.8,0,0,1,30.669,34c55.78,77.55,50.613,181.149-6.539,252.3ZM680.9,184.68c-.384-.32-.767-.661-1.137-.988C563.174,83.718,386.6,96.668,285.917,212.876a285.51,285.51,0,0,0-20.328,25.886C187.25,354.408,205.972,514.17,314,607.869c108.162,93.691,268.678,89.292,371.929-4.769a280.679,280.679,0,0,0,23.149-23.427C810.068,463.1,797.509,285.706,680.9,184.68Z" transform="translate(0 0)" fill="#30509f" fill-rule="evenodd"/>
      <path id="Path_124" data-name="Path 124" d="M438.081,207.2A193.7,193.7,0,0,0,321.07,131.124a208.668,208.668,0,0,1,25.267,18.494c88.176,76.406,97.48,210.83,21.074,298.971a210.931,210.931,0,0,1-109.854,66.839A194.174,194.174,0,0,0,394.22,480.217,202.919,202.919,0,0,0,427.5,449.64C485.53,382.751,492.176,282.088,438.081,207.2Z" transform="translate(243.761 89.641)" fill="#30509f" fill-rule="evenodd"/>
      <path id="Path_125" data-name="Path 125" d="M587.306,476.281c-2.239,2.63-4.449,5.26-6.7,7.854-75.034,77.962-201.1,80.215-279.347,4.926-75.6-73.044-80.272-193.1-12.324-271.45a54.4,54.4,0,0,1,7.164-7.555c75.19-78.915,200.283-80.777,279.3-5.537,75.652,72.994,79.853,192.749,11.912,271.763Zm-3.227-291.1c-.32-.291-.647-.561-.96-.817l-15.082-13.035c-84.046-66.022-206.324-58.8-281.955,19.8a126.171,126.171,0,0,0-11.876,13.732C206.094,288.792,212.5,412.648,291.989,489.11c.391.235.711.576,1.08.825l14.961,13.021c84.1,65.986,206.41,58.808,281.991-19.795.867-.981,1.7-1.976,2.267-2.608C670.613,396.833,666.967,265.053,584.079,185.186Z" transform="translate(59.424 61.564)" fill="#00adee" fill-rule="evenodd"/>
      <path id="Path_126" data-name="Path 126" d="M589.206,459.57a203.857,203.857,0,0,1-33.675,30.939c-88.282,63.655-212.138,43.669-276.212-44.8-54.287-75.482-47.627-177.361,11.095-245.138a197.622,197.622,0,0,1,33.441-30.591c88.489-64.01,212.422-43.988,276.07,44.18C654.666,289.97,647.95,391.85,589.206,459.57Zm20.136-243.625a238.061,238.061,0,0,0-30.989-34.422l-3.646-3.113c-72.241-60.848-180.033-68.069-259.929-9.958a261.188,261.188,0,0,0-30.6,26.682c-67.436,72.411-77.1,185.037-16.9,267.854a180.98,180.98,0,0,0,31.046,34.429l2.971,2.53c72.248,61.537,180.382,68.4,260.5,10.611a206.766,206.766,0,0,0,40.961-39.234C660.587,399.3,665.832,294.42,609.342,215.945Z" transform="translate(59.28 74.168)" fill="#f05d22" fill-rule="evenodd"/>
      <path id="Path_127" data-name="Path 127" d="M659.076,532.759C570.5,634.959,414.485,646.1,312.194,557.529c-102.49-88.894-113.386-244.662-24.77-346.875,88.894-102.569,244.356-113.585,346.9-24.756,102.171,88.574,113.663,244.35,24.756,346.861ZM636.439,182.067c-104.125-90.258-262.644-78.972-353.2,24.926l-.313.334c-90.493,104.445-79.27,263.6,24.947,353.841,104.516,90.6,263.632,79.249,354.153-25.267l.306-.292C752.334,431.165,741.026,272.674,636.439,182.067Z" transform="translate(25.089 28.356)" fill="#00adee" fill-rule="evenodd"/>
    </g>
    <g id="Logo_Icon_BG-2" data-name="Logo Icon BG" transform="translate(-143.146 1790.084)" opacity="0.095">
      <path id="Path_122-2" data-name="Path 122" d="M336.853,246.109a59.194,59.194,0,1,1-5.962-83.49,59.247,59.247,0,0,1,5.962,83.49Zm19.435-98.788c-32.554-28.242-82.084-24.715-110.2,7.751a79.822,79.822,0,0,0-5.624,7.48,78.106,78.106,0,0,0,117.2,101.613,87.385,87.385,0,0,0,6.5-6.751A78.248,78.248,0,0,0,356.288,147.321Z" transform="translate(15.054 18.902)" fill="#f9b815" fill-rule="evenodd"/>
      <path id="Path_123-2" data-name="Path 123" d="M388.707,275.581a74.879,74.879,0,0,1-14.827,14.2,76.531,76.531,0,0,1-75.732,7.722,76.836,76.836,0,0,1-45.873-18.623,77.7,77.7,0,0,1,89.392-126.208,76.811,76.811,0,0,1,36.888,16.917l1.312,1.122A86.375,86.375,0,0,1,391.1,183.163a76.552,76.552,0,0,1-2.4,92.417Zm-1.375-134.14c-.141-.117-.281-.242-.417-.362a102.737,102.737,0,0,0-144.263,10.69,104.579,104.579,0,0,0-7.446,9.482c-28.7,42.361-21.838,100.881,17.732,135.2,39.619,34.319,98.416,32.707,136.236-1.747a102.814,102.814,0,0,0,8.479-8.581C434.647,243.423,430.047,178.446,387.332,141.44Z" transform="translate(0 0)" fill="#30509f" fill-rule="evenodd"/>
      <path id="Path_124-2" data-name="Path 124" d="M323.682,158.989a70.951,70.951,0,0,0-42.861-27.865,76.433,76.433,0,0,1,9.255,6.774c32.3,27.987,35.706,77.226,7.719,109.512a77.263,77.263,0,0,1-40.239,24.483A71.125,71.125,0,0,0,307.616,259a74.331,74.331,0,0,0,12.189-11.2A71.7,71.7,0,0,0,323.682,158.989Z" transform="translate(63.997 23.534)" fill="#30509f" fill-rule="evenodd"/>
      <path id="Path_125-2" data-name="Path 125" d="M359.216,254.641c-.82.963-1.63,1.927-2.455,2.877-27.485,28.557-73.662,29.383-102.324,1.8a72.628,72.628,0,0,1-4.514-99.431,19.926,19.926,0,0,1,2.624-2.767c27.542-28.906,73.363-29.588,102.305-2.028,27.711,26.738,29.25,70.6,4.363,99.546Zm-1.182-106.627c-.117-.107-.237-.206-.351-.3l-5.525-4.775a77.287,77.287,0,0,0-103.279,7.253,46.218,46.218,0,0,0-4.35,5.03,77.164,77.164,0,0,0,6.514,104.117c.143.086.26.211.4.3l5.48,4.77a77.315,77.315,0,0,0,103.292-7.251c.318-.359.622-.724.831-.955C389.731,225.539,388.4,177.268,358.034,148.013Z" transform="translate(15.601 16.163)" fill="#00adee" fill-rule="evenodd"/>
      <path id="Path_126-2" data-name="Path 126" d="M359.9,249.827a74.671,74.671,0,0,1-12.335,11.333A72.591,72.591,0,1,1,359.9,249.827Zm7.376-89.239a87.2,87.2,0,0,0-11.351-12.609l-1.336-1.14c-26.461-22.288-65.945-24.933-95.211-3.647a95.673,95.673,0,0,0-11.208,9.773c-24.7,26.524-28.24,67.778-6.191,98.114a66.293,66.293,0,0,0,11.372,12.611l1.088.927a77.631,77.631,0,0,0,95.419,3.887,75.738,75.738,0,0,0,15-14.371A77.477,77.477,0,0,0,367.273,160.588Z" transform="translate(15.563 19.472)" fill="#f05d22" fill-rule="evenodd"/>
      <path id="Path_127-2" data-name="Path 127" d="M381.943,271.883C349.5,309.318,292.35,313.4,254.881,280.956a90.074,90.074,0,1,1,127.062-9.073Zm-8.292-128.457c-38.141-33.061-96.205-28.927-129.376,9.13l-.115.122c-33.147,38.258-29.036,96.554,9.138,129.61a92.12,92.12,0,0,0,129.725-9.255l.112-.107A92.049,92.049,0,0,0,373.651,143.426Z" transform="translate(6.587 7.445)" fill="#00adee" fill-rule="evenodd"/>
    </g>
    <g id="Logo_Icon_BG-3" data-name="Logo Icon BG" transform="translate(301.354 1604.084)" opacity="0.095">
      <path id="Path_122-3" data-name="Path 122" d="M336.853,246.109a59.194,59.194,0,1,1-5.962-83.49,59.247,59.247,0,0,1,5.962,83.49Zm19.435-98.788c-32.554-28.242-82.084-24.715-110.2,7.751a79.822,79.822,0,0,0-5.624,7.48,78.106,78.106,0,0,0,117.2,101.613,87.385,87.385,0,0,0,6.5-6.751A78.248,78.248,0,0,0,356.288,147.321Z" transform="translate(15.054 18.902)" fill="#f9b815" fill-rule="evenodd"/>
      <path id="Path_123-3" data-name="Path 123" d="M388.707,275.581a74.879,74.879,0,0,1-14.827,14.2,76.531,76.531,0,0,1-75.732,7.722,76.836,76.836,0,0,1-45.873-18.623,77.7,77.7,0,0,1,89.392-126.208,76.811,76.811,0,0,1,36.888,16.917l1.312,1.122A86.375,86.375,0,0,1,391.1,183.163a76.552,76.552,0,0,1-2.4,92.417Zm-1.375-134.14c-.141-.117-.281-.242-.417-.362a102.737,102.737,0,0,0-144.263,10.69,104.579,104.579,0,0,0-7.446,9.482c-28.7,42.361-21.838,100.881,17.732,135.2,39.619,34.319,98.416,32.707,136.236-1.747a102.814,102.814,0,0,0,8.479-8.581C434.647,243.423,430.047,178.446,387.332,141.44Z" transform="translate(0 0)" fill="#30509f" fill-rule="evenodd"/>
      <path id="Path_124-3" data-name="Path 124" d="M323.682,158.989a70.951,70.951,0,0,0-42.861-27.865,76.433,76.433,0,0,1,9.255,6.774c32.3,27.987,35.706,77.226,7.719,109.512a77.263,77.263,0,0,1-40.239,24.483A71.125,71.125,0,0,0,307.616,259a74.331,74.331,0,0,0,12.189-11.2A71.7,71.7,0,0,0,323.682,158.989Z" transform="translate(63.997 23.534)" fill="#30509f" fill-rule="evenodd"/>
      <path id="Path_125-3" data-name="Path 125" d="M359.216,254.641c-.82.963-1.63,1.927-2.455,2.877-27.485,28.557-73.662,29.383-102.324,1.8a72.628,72.628,0,0,1-4.514-99.431,19.926,19.926,0,0,1,2.624-2.767c27.542-28.906,73.363-29.588,102.305-2.028,27.711,26.738,29.25,70.6,4.363,99.546Zm-1.182-106.627c-.117-.107-.237-.206-.351-.3l-5.525-4.775a77.287,77.287,0,0,0-103.279,7.253,46.218,46.218,0,0,0-4.35,5.03,77.164,77.164,0,0,0,6.514,104.117c.143.086.26.211.4.3l5.48,4.77a77.315,77.315,0,0,0,103.292-7.251c.318-.359.622-.724.831-.955C389.731,225.539,388.4,177.268,358.034,148.013Z" transform="translate(15.601 16.163)" fill="#00adee" fill-rule="evenodd"/>
      <path id="Path_126-3" data-name="Path 126" d="M359.9,249.827a74.671,74.671,0,0,1-12.335,11.333A72.591,72.591,0,1,1,359.9,249.827Zm7.376-89.239a87.2,87.2,0,0,0-11.351-12.609l-1.336-1.14c-26.461-22.288-65.945-24.933-95.211-3.647a95.673,95.673,0,0,0-11.208,9.773c-24.7,26.524-28.24,67.778-6.191,98.114a66.293,66.293,0,0,0,11.372,12.611l1.088.927a77.631,77.631,0,0,0,95.419,3.887,75.738,75.738,0,0,0,15-14.371A77.477,77.477,0,0,0,367.273,160.588Z" transform="translate(15.563 19.472)" fill="#f05d22" fill-rule="evenodd"/>
      <path id="Path_127-3" data-name="Path 127" d="M381.943,271.883C349.5,309.318,292.35,313.4,254.881,280.956a90.074,90.074,0,1,1,127.062-9.073Zm-8.292-128.457c-38.141-33.061-96.205-28.927-129.376,9.13l-.115.122c-33.147,38.258-29.036,96.554,9.138,129.61a92.12,92.12,0,0,0,129.725-9.255l.112-.107A92.049,92.049,0,0,0,373.651,143.426Z" transform="translate(6.587 7.445)" fill="#00adee" fill-rule="evenodd"/>
    </g>
  </g>
</svg>
