<svg xmlns="http://www.w3.org/2000/svg" width="142" height="54" viewBox="0 0 142 54">
  <path id="button-background" d="M116.171,2.11c4.228.039,8.457-.12,12.75-.377a52.194,52.194,0,0,1,11.786.506c.512.1.893.8.89,1.595.035,6.742.253,30.637.815,34.112a27.268,27.268,0,0,1-.174,10.706c-.587,2.473-1.682,3.752-3.283,3.737a28.869,28.869,0,0,0-4.358.257L122.74,53.923c-7.434.625-14.93.853-22.489.783s-15.054-.04-22.486.089L61.3,54.642c-5.381-.05-10.827,0-16.209.147l-18-.167c-2.178-.02-4.356.059-6.471.138s-4.293.258-6.472.436c-1.923.18-2.521-.029-5.681,0s-4.315.911-6.361,0A28.3,28.3,0,0,1,.936,44.267C1.146,40.2,1.562,17.7,2.108,9.876A3.69,3.69,0,0,1,3.852,6.62,21.3,21.3,0,0,1,8.469,5.473a79.292,79.292,0,0,1,9.1-.907c3.268-.168,6.664-.335,10.188-.4s6.727-.136,9.674-.109c4.548.042,9.1-.015,13.71-.17S60.3,3.476,64.853,3.32c5.574-.147,11.02-.393,16.338-.542s10.7-.5,16.147-.842Q106.756,1.725,116.171,2.11Z" transform="translate(-0.855 -1.607)" fill="#1898d1"/>
</svg>
