<svg xmlns="http://www.w3.org/2000/svg" xmlns:xlink="http://www.w3.org/1999/xlink" width="960" height="816" viewBox="0 0 960 816">
  <defs>
    <clipPath id="clip-path">
      <rect id="Rectangle_2340" data-name="Rectangle 2340" width="960" height="816" transform="translate(960 120)" fill="none" stroke="#707070" stroke-width="1"/>
    </clipPath>
  </defs>
  <g id="Mask_Group_4" data-name="Mask Group 4" transform="translate(-960 -120)" clip-path="url(#clip-path)">
    <g id="Programs" transform="translate(-55 -961.627)">
      <g id="Logo_Icon_BG" data-name="Logo Icon BG" transform="translate(821.698 845.181)" opacity="0.095">
        <path id="Path_122" data-name="Path 122" d="M728.268,666.234C631.21,778.181,460.088,790.444,347.643,692.9c-112.552-97.568-124.851-268.56-27.651-380.625,97.544-112.4,268.393-124.7,381.064-27.1,112.576,97.556,124.756,268.524,27.211,381.064Zm88.7-450.887c-148.58-128.9-374.648-112.8-502.956,35.375-9.411,10.73-17.622,22.446-25.667,34.139-99.957,147.2-76.477,349.813,61.493,469.388C487.2,873.432,691.823,868.394,823.281,748.64a398.83,398.83,0,0,0,29.683-30.812C981.332,569.7,965.113,343.716,816.971,215.348Z" transform="translate(102.172 128.285)" fill="#f9b815" fill-rule="evenodd"/>
        <path id="Path_123" data-name="Path 123" d="M998.4,842.763a341.762,341.762,0,0,1-67.672,64.8c-103.807,74.849-235.87,83.773-345.654,35.244-74.777-4.575-148.664-32.333-209.372-85C227.657,729.569,212.162,504.8,339.865,357.4c112.457-129.592,299.68-157.861,443.84-75.633,61.112,10.2,119.682,36.183,168.365,77.213l5.989,5.121a394.224,394.224,0,0,1,51.273,56.847c93.255,129.651,84.616,302.853-10.932,421.81Zm-6.274-612.241c-.641-.535-1.283-1.105-1.9-1.652C795.314,61.729,500.114,83.379,331.785,277.66A477.327,477.327,0,0,0,297.8,320.937c-130.97,193.342-99.672,460.44,80.933,617.089,180.83,156.637,449.187,149.282,621.807-7.973a469.268,469.268,0,0,0,38.7-39.165C1208.082,695.989,1187.085,399.422,992.126,230.522Z" transform="translate(0 0)" fill="#30509f" fill-rule="evenodd"/>
        <path id="Path_124" data-name="Path 124" d="M559.364,258.3C510.443,190.5,439.9,147.486,363.74,131.124a348.86,348.86,0,0,1,42.243,30.919C553.4,289.781,568.953,514.517,441.215,661.874c-49.883,57.56-114.572,94.871-183.658,111.745,78.271,9.126,159.893-9.387,228.479-58.867a339.249,339.249,0,0,0,55.635-51.119C638.692,551.8,649.8,383.511,559.364,258.3Z" transform="translate(434.343 159.726)" fill="#30509f" fill-rule="evenodd"/>
        <path id="Path_125" data-name="Path 125" d="M829.122,711.261c-3.743,4.4-7.438,8.793-11.205,13.13C692.472,854.731,481.71,858.5,350.894,732.625c-126.4-122.118-134.2-322.839-20.6-453.822a90.942,90.942,0,0,1,11.978-12.631c125.706-131.933,334.841-135.046,466.94-9.257,126.479,122.035,133.5,322.245,19.915,454.345ZM823.728,224.6c-.535-.487-1.082-.939-1.6-1.367l-25.215-21.793C656.4,91.058,451.968,103.131,325.524,234.541A210.942,210.942,0,0,0,305.669,257.5C191.8,397.808,202.5,604.875,335.4,732.709c.654.392,1.188.963,1.806,1.379l25.013,21.769c140.6,110.318,345.084,98.317,471.444-33.093,1.45-1.64,2.84-3.3,3.791-4.361C968.4,578.436,962.3,358.12,823.728,224.6Z" transform="translate(105.884 109.698)" fill="#00adee" fill-rule="evenodd"/>
        <path id="Path_126" data-name="Path 126" d="M832.315,681.935a340.822,340.822,0,0,1-56.3,51.725c-147.594,106.421-354.661,73.007-461.783-74.9-90.76-126.194-79.625-296.519,18.549-409.832a330.392,330.392,0,0,1,55.908-51.143c147.939-107.015,355.136-73.542,461.545,73.863,91.52,126.74,80.291,297.066-17.919,410.284Zm33.664-407.3a398,398,0,0,0-51.809-57.548l-6.1-5.2C687.3,110.155,507.087,98.082,373.514,195.235a436.663,436.663,0,0,0-51.155,44.607C209.617,360.9,193.469,549.194,294.1,687.651a302.569,302.569,0,0,0,51.9,57.559l4.967,4.23c120.787,102.88,301.569,114.346,435.51,17.741a345.679,345.679,0,0,0,68.479-65.592C951.652,581.171,960.422,405.83,865.979,274.634Z" transform="translate(105.627 132.155)" fill="#f05d22" fill-rule="evenodd"/>
        <path id="Path_127" data-name="Path 127" d="M952.888,809.336C804.806,980.2,543.97,998.816,372.955,850.747c-171.348-148.616-189.564-409.036-41.411-579.92C480.16,99.348,740.069,80.93,911.5,229.439c170.813,148.082,190.027,408.513,41.387,579.9Zm-37.846-586.3c-174.081-150.9-439.1-132.028-590.5,41.672l-.523.559C172.733,439.881,191.5,705.957,365.731,856.831,540.465,1008.3,806.482,989.322,957.819,814.588l.511-.487C1108.8,639.486,1089.894,374.515,915.041,223.035Z" transform="translate(44.705 50.526)" fill="#00adee" fill-rule="evenodd"/>
      </g>
    </g>
  </g>
</svg>
