<svg xmlns="http://www.w3.org/2000/svg" width="187.355" height="53.831" viewBox="0 0 187.355 53.831">
  <path id="button-background" d="M152.862,2.111c5.573.039,11.148-.12,16.807-.378a90.374,90.374,0,0,1,15.535.506c3.04.955,2.836,3.875,2.832,4.669.047,6.749.176,37.588-.116,41.279a4.587,4.587,0,0,1-5.025,4.251,49.97,49.97,0,0,0-5.744.257l-15.629,1.279c-9.8.626-19.68.854-29.645.784s-19.844-.041-29.64.089l-21.7-.153c-7.093-.05-14.272,0-21.366.147l-23.728-.167c-2.871-.02-5.743.059-8.53.138s-5.659.258-8.531.436c-2.534.181-3.324-.029-7.488,0s-4.159.571-6.856-.341C1.426,52.379,1.263,52.4.92,47.436c0-6.456-.382-19.576,0-36.988C1.013,8.861,1.908,8.1,4.8,6.625a35.54,35.54,0,0,1,6.086-1.148c3.634-.471,7.689-.74,12-.908s8.784-.335,13.429-.4,8.867-.136,12.752-.109c6,.042,11.991-.015,18.072-.17s12.078-.411,18.074-.567c7.348-.147,14.526-.394,21.537-.543s14.1-.5,21.285-.842Q140.452,1.726,152.862,2.111Z" transform="translate(-0.75 -1.604)" fill="#0092c9"/>
</svg>
