<svg xmlns="http://www.w3.org/2000/svg" xmlns:xlink="http://www.w3.org/1999/xlink" width="456" height="264" viewBox="0 0 456 264">
  <defs>
    <clipPath id="clip-path">
      <rect id="Rectangle_2341" data-name="Rectangle 2341" width="456" height="264" transform="translate(1464 1296)" fill="none" stroke="#707070" stroke-width="1"/>
    </clipPath>
  </defs>
  <g id="Mask_Group_5" data-name="Mask Group 5" transform="translate(-1464 -1296)" clip-path="url(#clip-path)">
    <g id="Logo_Icon_BG" data-name="Logo Icon BG" transform="translate(1244.354 1191.553)" opacity="0.095">
      <path id="Path_122" data-name="Path 122" d="M593.978,522.095c-71.054,81.954-196.329,90.931-278.649,19.521-82.4-71.428-91.4-196.608-20.243-278.649,71.411-82.285,196.486-91.288,278.97-19.843,82.415,71.419,91.331,196.581,19.921,278.97Zm64.939-330.086c-108.773-94.367-274.273-82.58-368.205,25.9-6.89,7.855-12.9,16.433-18.79,24.992-73.177,107.764-55.987,256.092,45.018,343.63,100.561,87.252,250.359,83.563,346.6-4.106a291.98,291.98,0,0,0,21.73-22.557C779.242,451.423,767.368,285.985,658.917,192.009Z" transform="translate(72.283 90.757)" fill="#f9b815" fill-rule="evenodd"/>
      <path id="Path_123" data-name="Path 123" d="M789.222,648.17a250.2,250.2,0,0,1-49.541,47.436c-75.995,54.8-172.676,61.328-253.047,25.8-54.743-3.349-108.834-23.67-153.277-62.225C224.975,565.3,213.631,400.751,307.12,292.848c82.328-94.872,219.39-115.567,324.927-55.37A256.652,256.652,0,0,1,755.3,294l4.384,3.749a288.6,288.6,0,0,1,37.536,41.616c68.27,94.915,61.946,221.713-8,308.8Zm-4.593-448.211c-.47-.391-.939-.809-1.392-1.209C640.547,76.389,424.436,92.239,301.2,234.468a349.434,349.434,0,0,0-24.879,31.682c-95.881,141.542-72.968,337.08,59.249,451.76C467.957,832.582,664.417,827.2,790.788,712.073A343.532,343.532,0,0,0,819.121,683.4C942.726,540.719,927.355,323.608,784.629,199.959Z" transform="translate(0 0)" fill="#30509f" fill-rule="evenodd"/>
      <path id="Path_124" data-name="Path 124" d="M478.5,224.23c-35.814-49.637-87.46-81.127-143.213-93.106a255.394,255.394,0,0,1,30.925,22.635C474.138,247.274,485.525,411.8,392.01,519.676a258.163,258.163,0,0,1-134.453,81.806c57.3,6.681,117.055-6.872,167.266-43.1a248.359,248.359,0,0,0,40.729-37.423C536.579,439.1,544.713,315.892,478.5,224.23Z" transform="translate(307.282 113)" fill="#30509f" fill-rule="evenodd"/>
      <path id="Path_125" data-name="Path 125" d="M667.9,554.6c-2.74,3.219-5.445,6.437-8.2,9.612-91.836,95.42-246.131,98.178-341.9,6.028-92.532-89.4-98.247-236.345-15.084-332.235a66.576,66.576,0,0,1,8.769-9.247c92.027-96.586,245.131-98.865,341.838-6.777,92.593,89.339,97.734,235.91,14.58,332.618Zm-3.949-356.279c-.392-.357-.792-.687-1.174-1L644.32,181.366C541.454,100.561,391.8,109.4,299.228,205.6a154.424,154.424,0,0,0-14.536,16.806C201.329,325.127,209.167,476.717,306.457,570.3c.478.287.87.7,1.322,1.009l18.312,15.937c102.927,80.762,252.63,71.976,345.136-24.227,1.061-1.2,2.079-2.418,2.775-3.192C769.865,457.362,765.4,296.072,663.954,198.321Z" transform="translate(74.909 77.607)" fill="#00adee" fill-rule="evenodd"/>
      <path id="Path_126" data-name="Path 126" d="M670.234,533.684a249.506,249.506,0,0,1-41.216,37.867C520.967,649.46,369.377,625,290.955,516.721c-66.444-92.384-58.292-217.077,13.579-300.031a241.873,241.873,0,0,1,40.929-37.441c108.3-78.344,259.989-53.839,337.889,54.073,67,92.784,58.78,217.477-13.118,300.361Zm24.644-298.178a291.367,291.367,0,0,0-37.928-42.13l-4.463-3.81c-88.417-74.473-220.347-83.311-318.134-12.187a319.673,319.673,0,0,0-37.449,32.656c-82.537,88.626-94.359,226.471-20.686,327.833a221.508,221.508,0,0,0,38,42.138l3.636,3.1c88.426,75.316,220.774,83.711,318.829,12.988a253.063,253.063,0,0,0,50.133-48.019C757.6,459.916,764.019,331.553,694.879,235.506Z" transform="translate(74.727 93.495)" fill="#f05d22" fill-rule="evenodd"/>
      <path id="Path_127" data-name="Path 127" d="M757,624.942C648.6,750.027,457.643,763.658,332.446,655.259c-125.44-108.8-138.776-299.448-30.316-424.549C410.929,105.173,601.2,91.69,726.7,200.411,851.754,308.818,865.82,499.476,757,624.942ZM729.3,195.722C601.856,85.252,407.841,99.067,297.006,226.229l-.383.409C185.866,354.471,199.6,549.261,327.157,659.713c127.92,110.887,322.666,96.994,433.457-30.925l.374-.357C871.144,500.6,857.3,306.618,729.3,195.722Z" transform="translate(31.627 35.745)" fill="#00adee" fill-rule="evenodd"/>
    </g>
  </g>
</svg>
