<svg xmlns="http://www.w3.org/2000/svg" xmlns:xlink="http://www.w3.org/1999/xlink" width="96" height="72" viewBox="0 0 96 72">
  <defs>
    <clipPath id="clip-path">
      <rect id="Rectangle_2348" data-name="Rectangle 2348" width="96" height="72" transform="translate(984 3192)" fill="none" stroke="#707070" stroke-width="1"/>
    </clipPath>
  </defs>
  <g id="Mask_Group_4" data-name="Mask Group 4" transform="translate(-984 -3192)" clip-path="url(#clip-path)">
    <path id="Path_134" data-name="Path 134" d="M32.85-78.9a31.906,31.906,0,0,0-8.625,5.025A14.119,14.119,0,0,0,19.2-65.4a17.453,17.453,0,0,1,9.975,2.775Q33.3-59.85,33.3-53.55a9.987,9.987,0,0,1-3.75,8.25,13.523,13.523,0,0,1-8.7,3q-6.6,0-9.675-4.425A17.809,17.809,0,0,1,8.1-57.15a20.575,20.575,0,0,1,2.175-9.6,28.365,28.365,0,0,1,5.625-7.5,33.982,33.982,0,0,1,7.95-5.625,63.054,63.054,0,0,1,9-3.825Zm33.45,0a31.906,31.906,0,0,0-8.625,5.025A14.119,14.119,0,0,0,52.65-65.4a17.453,17.453,0,0,1,9.975,2.775Q66.75-59.85,66.75-53.55A9.987,9.987,0,0,1,63-45.3a13.523,13.523,0,0,1-8.7,3q-6.6,0-9.675-4.425A17.809,17.809,0,0,1,41.55-57.15a20.575,20.575,0,0,1,2.175-9.6,28.365,28.365,0,0,1,5.625-7.5,33.983,33.983,0,0,1,7.95-5.625,63.054,63.054,0,0,1,9-3.825Z" transform="translate(994.9 3290.7)" fill="#3050a0"/>
  </g>
</svg>
