<svg xmlns="http://www.w3.org/2000/svg" width="755" height="190" viewBox="0 0 755 190">
  <path id="button-background" d="M613.98,3.377c22.48.138,44.964-.422,67.791-1.328a417.952,417.952,0,0,1,62.663,1.78,5.6,5.6,0,0,1,4.731,5.61c.188,23.722,1.346,107.8,4.334,120.024,3.321,13.276,3.239,25.833-.925,37.668-3.124,8.7-8.943,13.2-17.456,13.149a231.046,231.046,0,0,0-23.169.9l-63.042,4.5c-39.524,2.2-79.381,3-119.572,2.754s-80.042-.142-119.554.313l-87.533-.537c-28.612-.176-57.565,0-86.179.517l-95.708-.587c-11.58-.071-23.163.206-34.4.486s-22.827.906-34.412,1.533c-10.223.635-13.406-.1-30.2,0s-22.942,3.206-33.821,0c-5.375-11.545-7.7-22.068-6.232-38.454C2.4,137.41,4.616,58.24,7.519,30.7c.377-5.579,4.15-9.742,9.271-11.454A162.334,162.334,0,0,1,41.34,15.21C56,13.556,72.352,12.61,89.727,12.019s35.431-1.178,54.166-1.412,35.767-.478,51.435-.382c24.182.148,48.367-.052,72.894-.6s48.715-1.445,72.9-1.994c29.638-.516,58.593-1.384,86.869-1.909s56.892-1.744,85.853-2.961Q563.921,2.023,613.98,3.377Z" transform="translate(-0.855 -1.607)" fill="#f15d22"/>
</svg>
